<svg xmlns="http://www.w3.org/2000/svg" viewBox="0 0 270 157.33"><defs><style>.cls-1{fill:#bfd4db;}.cls-1,.cls-2,.cls-3,.cls-4{opacity:0.78;}.cls-2{fill:#9bc6d7;}.cls-3{fill:#fefeff;}.cls-4{fill:#8fb5c1;}</style></defs><title>default image</title><g id="Layer_2" data-name="Layer 2"><g id="Layer_1-2" data-name="Layer 1"><rect class="cls-1" width="270" height="157.33"/><path class="cls-2" d="M177.74,36H92.26a2.76,2.76,0,0,0-2.76,2.76v69.68a2.76,2.76,0,0,0,.85,2l16.47,15.8a2.76,2.76,0,0,0,1.91.77h69a2.76,2.76,0,0,0,2.76-2.76V38.76A2.76,2.76,0,0,0,177.74,36Z"/><path class="cls-3" d="M163.08,80.35,138.4,55.67a5.45,5.45,0,0,0-3.87-1.59h-19.2a5.5,5.5,0,0,0-5.48,5.48v19.2a5.47,5.47,0,0,0,1.62,3.89l24.68,24.68a5.45,5.45,0,0,0,3.87,1.59,5.36,5.36,0,0,0,3.87-1.62l19.2-19.2a5.36,5.36,0,0,0,1.62-3.87A5.54,5.54,0,0,0,163.08,80.35ZM119.45,67.79a4.11,4.11,0,1,1,4.11-4.11A4.11,4.11,0,0,1,119.45,67.79Z"/><polygon class="cls-4" points="89.5 109.62 107.84 109.62 107.63 127 89.5 109.62"/></g></g></svg>